<svg width="125" height="69" viewBox="0 0 125 69" fill="none" xmlns="http://www.w3.org/2000/svg">
<path d="M76.1601 16.01C72.8101 16.01 70.0601 13.27 70.0601 9.91V6.1C70.0601 2.75 72.8001 0 76.1601 0C79.5101 0 82.2601 2.74 82.2601 6.1V9.91C82.2501 13.27 79.5101 16.01 76.1601 16.01Z" fill="#FFEB3B"/>
<g opacity="0.2">
<path opacity="0.2" d="M76.1601 2.01001C78.4201 2.01001 80.2601 3.85001 80.2601 6.11001V9.92001C80.2601 12.18 78.4201 14.02 76.1601 14.02C73.9001 14.02 72.0601 12.18 72.0601 9.92001V6.11001C72.0601 3.85001 73.9001 2.01001 76.1601 2.01001ZM76.1601 0.0100098C72.8101 0.0100098 70.0601 2.75001 70.0601 6.11001V9.92001C70.0601 13.27 72.8001 16.02 76.1601 16.02C79.5101 16.02 82.2601 13.28 82.2601 9.92001V6.11001C82.2501 2.75001 79.5101 0.0100098 76.1601 0.0100098Z" fill="#424242"/>
</g>
<path d="M124 34.05V54.67C124 57.5 122.92 59.93 120 59.93L13.1499 60.22C9.64988 60.22 3.74988 59.21 3.99988 52.38C3.99988 52.38 4.24988 43.43 4.40988 41C4.86988 34 9.11988 31.42 19.5799 30.09C33.0099 28.38 34.3099 24.36 38.2499 21.42C47.0999 14.82 51.9999 10 75.4599 10C92.7599 10 105.87 15.81 114.2 25.89C114.58 26.35 117.15 27.65 121.25 29.24C122.72 29.81 124 30.92 124 34.05Z" fill="url(#paint0_linear_14_29)"/>
<path d="M0 45.99H9.7C14.33 45.99 15.51 44.68 16.46 42.3C16.46 42.3 18.74 38 12.99 38H4.3C3.99 38 3.67 38.03 3.37 38.08C1.74 40.02 0.3 42.53 0 45.99Z" fill="#FFF9C4"/>
<path d="M122.9 43.46H121.63C120.81 43.46 120.4 42.93 120.14 41.53L119.41 35.06C119.15 33.13 120.08 33.13 120.9 33.13H122.9C124.3 33.13 124.39 34 124.39 35.06V41.53C124.39 42.6 124.46 43.46 122.9 43.46Z" fill="#E53935"/>
<path d="M73.0499 15.85C57.9999 15.83 42.8699 23.47 38.6499 31.27C38.1199 32.26 38.9299 33.4 40.1499 33.4H73.2999C74.2099 33.4 74.9499 32.74 74.9499 31.92V17.32C74.9499 16.41 74.0599 15.85 73.0499 15.85Z" fill="#546E7A"/>
<path d="M81.8499 15.85C95.5699 15.85 103.34 23.47 107.18 31.27C107.67 32.26 106.93 33.4 105.82 33.4H81.6399C80.8099 33.4 80.1299 32.74 80.1299 31.92V20.25C80.1299 17.12 80.2899 15.85 81.8499 15.85Z" fill="#546E7A"/>
<g opacity="0.2">
<path opacity="0.2" d="M75.4699 13C91.2999 13 103.9 18.12 111.9 27.8C112.24 28.21 113.14 29.29 120.17 32.03C120.62 32.21 121.01 32.36 121.01 34.05V54.67C121.01 56.93 120.33 56.93 120 56.93L13.1599 57.22C11.7599 57.22 9.22988 57.02 7.93988 55.69C7.25988 54.98 6.94988 53.94 7.00988 52.46C7.00988 52.37 7.25988 43.54 7.41988 41.2C7.71988 36.64 9.59988 34.38 19.9799 33.06C31.5999 31.58 35.1899 28.23 38.0799 25.54C38.7499 24.92 39.3799 24.33 40.0599 23.82C40.5899 23.42 41.1099 23.03 41.6199 22.65C49.3099 16.84 54.4099 13 75.4699 13ZM75.4699 10C51.9999 10 47.0999 14.82 38.2499 21.42C34.3099 24.36 33.0199 28.38 19.5799 30.09C9.12988 31.42 4.87988 34 4.41988 41C4.25988 43.43 3.99988 52.38 3.99988 52.38C3.74988 59.21 9.64988 60.22 13.1499 60.22L120 59.93C122.92 59.93 124 57.51 124 54.67V34.05C124 30.92 122.72 29.81 121.25 29.24C117.16 27.65 114.58 26.35 114.2 25.89C105.88 15.81 92.7699 10 75.4699 10Z" fill="#424242"/>
</g>
<path d="M56.6201 38.25H50.5801V44.29H56.6201V38.25Z" fill="#6D4C41"/>
<path d="M68.7001 38.25H62.6602V44.29H68.7001V38.25Z" fill="#6D4C41"/>
<path d="M80.78 38.25H74.74V44.29H80.78V38.25Z" fill="#6D4C41"/>
<path d="M50.5901 44.29H44.55V50.33H50.5901V44.29Z" fill="#6D4C41"/>
<path d="M62.6601 44.29H56.6201V50.33H62.6601V44.29Z" fill="#6D4C41"/>
<path d="M74.7399 44.29H68.7V50.33H74.7399V44.29Z" fill="#6D4C41"/>
<path d="M86.82 44.29H80.78V50.33H86.82V44.29Z" fill="#6D4C41"/>
<g opacity="0.2">
<path opacity="0.2" d="M72.9499 17.85V31.4H40.8999C42.9899 28.2 47.1999 24.97 52.6199 22.45C58.9599 19.49 66.1799 17.86 72.9499 17.85ZM73.0199 15.85C57.9799 15.85 42.8699 23.48 38.6499 31.27C38.1199 32.26 38.9299 33.4 40.1499 33.4H73.2999C74.2099 33.4 74.9499 32.74 74.9499 31.92V17.32C74.9499 16.42 74.0599 15.85 73.0599 15.85C73.0399 15.85 73.0299 15.85 73.0199 15.85Z" fill="#424242"/>
</g>
<g opacity="0.2">
<path opacity="0.2" d="M82.2299 17.85C95.6599 18 102.17 26.06 105 31.4H82.1299V20.25C82.1299 19.78 82.1299 18.53 82.2299 17.85ZM81.8499 15.85C80.2899 15.85 80.1299 17.13 80.1299 20.25V31.92C80.1299 32.74 80.7999 33.4 81.6399 33.4H105.82C106.93 33.4 107.67 32.25 107.18 31.27C103.34 23.47 95.5699 15.85 81.8499 15.85Z" fill="#424242"/>
</g>
<path d="M31.73 68.02C37.2528 68.02 41.73 63.5429 41.73 58.02C41.73 52.4972 37.2528 48.02 31.73 48.02C26.2071 48.02 21.73 52.4972 21.73 58.02C21.73 63.5429 26.2071 68.02 31.73 68.02Z" fill="#4E342E"/>
<g opacity="0.2">
<path opacity="0.2" d="M31.73 49.02C36.69 49.02 40.73 53.06 40.73 58.02C40.73 62.98 36.69 67.02 31.73 67.02C26.77 67.02 22.73 62.98 22.73 58.02C22.73 53.06 26.77 49.02 31.73 49.02ZM31.73 48.02C26.21 48.02 21.73 52.5 21.73 58.02C21.73 63.54 26.21 68.02 31.73 68.02C37.25 68.02 41.73 63.54 41.73 58.02C41.73 52.5 37.26 48.02 31.73 48.02Z" fill="#EEEEEE"/>
</g>
<path d="M31.7301 63.67C34.8505 63.67 37.3801 61.1404 37.3801 58.02C37.3801 54.8996 34.8505 52.37 31.7301 52.37C28.6097 52.37 26.0801 54.8996 26.0801 58.02C26.0801 61.1404 28.6097 63.67 31.7301 63.67Z" fill="#BDBDBD"/>
<path d="M102.85 68.02C108.373 68.02 112.85 63.5429 112.85 58.02C112.85 52.4972 108.373 48.02 102.85 48.02C97.3273 48.02 92.8501 52.4972 92.8501 58.02C92.8501 63.5429 97.3273 68.02 102.85 68.02Z" fill="#4E342E"/>
<g opacity="0.2">
<path opacity="0.2" d="M102.85 49.02C107.81 49.02 111.85 53.06 111.85 58.02C111.85 62.98 107.81 67.02 102.85 67.02C97.8901 67.02 93.8501 62.98 93.8501 58.02C93.8501 53.06 97.8901 49.02 102.85 49.02ZM102.85 48.02C97.3301 48.02 92.8501 52.5 92.8501 58.02C92.8501 63.54 97.3301 68.02 102.85 68.02C108.37 68.02 112.85 63.54 112.85 58.02C112.85 52.5 108.38 48.02 102.85 48.02Z" fill="#EEEEEE"/>
</g>
<path d="M102.85 63.67C105.971 63.67 108.5 61.1404 108.5 58.02C108.5 54.8996 105.971 52.37 102.85 52.37C99.7298 52.37 97.2002 54.8996 97.2002 58.02C97.2002 61.1404 99.7298 63.67 102.85 63.67Z" fill="#BDBDBD"/>
<defs>
<linearGradient id="paint0_linear_14_29" x1="63.9959" y1="11.6667" x2="63.9959" y2="59.7083" gradientUnits="userSpaceOnUse">
<stop stop-color="#FFEE58"/>
<stop offset="0.3491" stop-color="#FFE950"/>
<stop offset="0.8873" stop-color="#FDDB3A"/>
<stop offset="1" stop-color="#FDD835"/>
</linearGradient>
</defs>
</svg>
