<svg width="23" height="23" viewBox="0 0 23 23" fill="none" xmlns="http://www.w3.org/2000/svg">
<path d="M22.8965 18.3334L22.782 17.9884C22.5109 17.1824 21.6222 16.3417 20.8058 16.1202L17.7841 15.2946C16.9646 15.0716 15.7957 15.3714 15.1962 15.971L14.1026 17.0649C10.1281 15.9907 7.01157 12.8735 5.93907 8.8991L7.03273 7.80524C7.63227 7.20559 7.93199 6.03801 7.70905 5.21842L6.88508 2.19467C6.66215 1.37658 5.8201 0.487708 5.01575 0.219509L4.67082 0.103513C3.86492 -0.164685 2.71559 0.10655 2.1161 0.706152L0.480208 2.34384C0.187958 2.6346 0.00117382 3.46624 0.00117382 3.46928C-0.0560423 8.66402 1.9805 13.6689 5.65438 17.3435C9.31925 21.0091 14.3045 23.043 19.4832 22.9993C19.5103 22.9993 20.3659 22.8155 20.6581 22.5247L22.294 20.8885C22.8935 20.2889 23.1646 19.1394 22.8965 18.3334Z" fill="black"/>
</svg>



